# Blender v2.91.0 OBJ File: '3dbase.blend'
# www.blender.org
mtllib 50x.mtl
o 50_Circle.031
v 0.959126 0.000000 -0.191724
v 0.977957 0.000000 -0.000536
v -0.002044 0.000000 -0.000534
v 0.903358 0.000000 -0.375566
v 0.955293 0.009932 0.189891
v 0.899748 0.009932 0.372999
v 0.903359 0.000000 0.374495
v 0.959127 0.000000 0.190653
v -0.963213 -0.000000 0.190655
v -0.982044 -0.000000 -0.000533
v -0.907446 -0.000000 0.374496
v 0.514562 0.127400 0.772619
v 0.655470 0.127400 0.656978
v -0.002044 0.127400 -0.000534
v 0.353801 0.127400 0.858548
v -0.914041 0.127400 -0.181941
v -0.931907 0.127400 -0.000534
v -0.861125 0.127400 -0.356377
v -0.914041 0.127400 0.180874
v -0.861125 0.127400 0.355310
v 0.909954 0.127400 0.180872
v 0.927820 0.127400 -0.000536
v 0.857040 0.127400 0.355308
v -0.775197 0.127400 0.516072
v -0.659557 0.127400 0.656980
v 0.909953 0.127400 -0.181942
v 0.857038 0.127400 -0.356379
v 0.179364 0.127400 -0.912531
v -0.002044 0.127400 -0.930398
v 0.353799 0.127400 -0.859616
v -0.518648 0.127400 0.772620
v -0.357886 0.127400 0.858549
v 0.771109 0.127400 -0.517140
v 0.655469 0.127400 -0.658047
v -0.183452 0.127400 -0.912531
v -0.357887 0.127400 -0.859616
v -0.183450 0.127400 0.911463
v -0.002043 0.127400 0.929331
v 0.514561 0.127400 -0.773687
v -0.518648 0.127400 -0.773688
v -0.659557 0.127400 -0.658047
v 0.179365 0.127400 0.911463
v 0.812797 0.000000 0.543923
v 0.690922 0.000000 0.692430
v -0.963213 -0.000000 -0.191722
v -0.907446 -0.000000 -0.375563
v 0.542416 -0.000000 0.814306
v 0.372987 -0.000000 0.904868
v -0.816884 -0.000000 -0.544993
v -0.695009 0.000000 -0.693498
v 0.189146 -0.000000 0.960636
v -0.002043 -0.000000 0.979466
v -0.546503 0.000000 -0.815374
v -0.377074 0.000000 -0.905936
v 0.542415 0.000000 -0.815375
v 0.690921 0.000000 -0.693499
v 0.372986 0.000000 -0.905936
v -0.193232 -0.000000 0.960636
v -0.377073 -0.000000 0.904868
v -0.193232 0.000000 -0.961703
v -0.002044 0.000000 -0.980534
v 0.812796 0.000000 -0.544994
v 0.189144 0.000000 -0.961703
v -0.816884 -0.000000 0.543926
v -0.695008 -0.000000 0.692431
v 0.771111 0.127400 0.516070
v -0.775197 0.127400 -0.517139
v -0.546501 -0.000000 0.814306
v -0.903834 0.009932 0.373001
v -0.959380 0.009932 0.189893
v 0.540243 0.009932 -0.812124
v 0.688157 0.009932 -0.690735
v 0.974048 0.009932 -0.000536
v -0.813634 0.009932 0.541754
v 0.371490 0.009932 -0.902325
v 0.955292 0.009932 -0.190962
v -0.692245 0.009932 0.689668
v 0.188382 0.009932 -0.957869
v 0.899747 0.009932 -0.374070
v -0.544331 0.009932 0.811057
v -0.002044 0.009932 -0.976625
v 0.809546 0.009932 -0.542823
v -0.375577 0.009932 0.901258
v -0.192471 0.009932 -0.957870
v 0.657518 0.120036 -0.660096
v 0.773519 0.120036 -0.518751
v -0.192469 0.009932 0.956803
v -0.375578 0.009932 -0.902325
v -0.002043 0.009932 0.975559
v -0.544331 0.009932 -0.812124
v 0.188383 0.009932 0.956802
v -0.692245 0.009932 -0.690735
v 0.371491 0.009932 0.901256
v -0.813634 0.009932 -0.542821
v 0.540245 0.009932 0.811056
v -0.903835 0.009932 -0.374068
v 0.688159 0.009932 0.689666
v -0.959380 0.009932 -0.190960
v 0.809548 0.009932 0.541752
v -0.978135 0.009932 -0.000533
v 0.859717 0.120036 0.356417
v 0.773520 0.120036 0.517680
v -0.916883 0.120036 0.181439
v -0.934805 0.120036 -0.000534
v -0.916883 0.120036 -0.182506
v 0.657520 0.120036 0.659028
v -0.863803 0.120036 -0.357487
v 0.516172 0.120036 0.775029
v -0.777607 0.120036 -0.518748
v 0.354910 0.120036 0.861226
v -0.661606 0.120036 -0.660096
v 0.179931 0.120036 0.914305
v -0.520258 0.120036 -0.776097
v -0.002043 0.120036 0.932228
v -0.358996 0.120036 -0.862294
v -0.184016 0.120036 0.914305
v -0.184016 0.120036 -0.915373
v -0.358996 0.120036 0.861226
v -0.002044 0.120036 -0.933295
v -0.520258 0.120036 0.775030
v 0.859715 0.120036 -0.357488
v 0.179928 0.120036 -0.915373
v -0.661606 0.120036 0.659029
v 0.912795 0.120036 -0.182508
v 0.354909 0.120036 -0.862294
v -0.777607 0.120036 0.517681
v 0.930719 0.120036 -0.000535
v 0.516171 0.120036 -0.776097
v -0.863803 0.120036 0.356420
v 0.912796 0.120036 0.181438
vt 0.500017 0.499981
vt 0.500015 0.499980
vt 0.500012 0.500000
vt 0.500018 0.499984
vt 0.499987 0.499979
vt 0.499989 0.499979
vt 0.499989 0.499979
vt 0.499987 0.499979
vt 0.500008 0.500019
vt 0.500010 0.500020
vt 0.500007 0.500016
vt 0.499993 0.499984
vt 0.499992 0.499982
vt 0.499988 0.500000
vt 0.499994 0.499987
vt 0.499988 0.500020
vt 0.499990 0.500019
vt 0.499987 0.500020
vt 0.499992 0.500018
vt 0.499993 0.500016
vt 0.499987 0.499980
vt 0.499985 0.499981
vt 0.499988 0.499980
vt 0.499994 0.500013
vt 0.499995 0.500010
vt 0.499984 0.499982
vt 0.499982 0.499984
vt 0.499979 0.500002
vt 0.499980 0.500006
vt 0.499979 0.499998
vt 0.499996 0.500006
vt 0.499996 0.500002
vt 0.499981 0.499987
vt 0.499980 0.499990
vt 0.499980 0.500010
vt 0.499981 0.500013
vt 0.499996 0.499998
vt 0.499996 0.499994
vt 0.499980 0.499994
vt 0.499982 0.500016
vt 0.499984 0.500018
vt 0.499995 0.499990
vt 0.500010 0.499980
vt 0.500008 0.499981
vt 0.500012 0.500021
vt 0.500013 0.500021
vt 0.500007 0.499984
vt 0.500005 0.499986
vt 0.500015 0.500020
vt 0.500017 0.500019
vt 0.500005 0.499990
vt 0.500004 0.499994
vt 0.500018 0.500016
vt 0.500019 0.500014
vt 0.500021 0.499994
vt 0.500020 0.499990
vt 0.500021 0.499998
vt 0.500004 0.499998
vt 0.500004 0.500002
vt 0.500020 0.500010
vt 0.500021 0.500006
vt 0.500019 0.499986
vt 0.500021 0.500002
vt 0.500005 0.500014
vt 0.500005 0.500010
vt 0.499990 0.499981
vt 0.499985 0.500019
vt 0.500004 0.500006
vt 0.499993 0.500016
vt 0.499992 0.500019
vt 0.499979 0.499994
vt 0.499980 0.499990
vt 0.499985 0.499980
vt 0.499994 0.500013
vt 0.499979 0.499998
vt 0.499983 0.499981
vt 0.499995 0.500010
vt 0.499979 0.500002
vt 0.499982 0.499984
vt 0.499996 0.500006
vt 0.499979 0.500006
vt 0.499981 0.499987
vt 0.499996 0.500002
vt 0.499980 0.500010
vt 0.499980 0.499990
vt 0.499981 0.499987
vt 0.499996 0.499998
vt 0.499981 0.500013
vt 0.499996 0.499994
vt 0.499982 0.500016
vt 0.499995 0.499990
vt 0.499983 0.500019
vt 0.499994 0.499987
vt 0.499985 0.500020
vt 0.499993 0.499984
vt 0.499987 0.500021
vt 0.499992 0.499981
vt 0.499989 0.500021
vt 0.499990 0.499980
vt 0.499990 0.500020
vt 0.499988 0.499980
vt 0.499990 0.499981
vt 0.499992 0.500018
vt 0.499990 0.500019
vt 0.499988 0.500020
vt 0.499992 0.499982
vt 0.499987 0.500020
vt 0.499993 0.499984
vt 0.499985 0.500019
vt 0.499994 0.499987
vt 0.499984 0.500018
vt 0.499995 0.499990
vt 0.499982 0.500016
vt 0.499996 0.499994
vt 0.499981 0.500013
vt 0.499996 0.499998
vt 0.499980 0.500010
vt 0.499996 0.500002
vt 0.499980 0.500006
vt 0.499996 0.500006
vt 0.499982 0.499984
vt 0.499979 0.500002
vt 0.499995 0.500010
vt 0.499984 0.499982
vt 0.499979 0.499998
vt 0.499994 0.500013
vt 0.499985 0.499981
vt 0.499980 0.499994
vt 0.499993 0.500016
vt 0.499987 0.499980
vn 0.8254 -0.5401 -0.1642
vn 0.8416 -0.5401 -0.0000
vn 0.0000 -1.0000 -0.0000
vn 0.7775 -0.5402 -0.3221
vn 0.9127 0.3662 0.1815
vn 0.8597 0.3662 0.3561
vn 0.7775 -0.5401 0.3221
vn 0.8254 -0.5401 0.1642
vn -0.8254 -0.5402 0.1642
vn -0.8416 -0.5402 0.0000
vn -0.7775 -0.5401 0.3221
vn 0.3256 0.8103 0.4873
vn 0.4144 0.8103 0.4144
vn -0.0000 1.0000 0.0000
vn 0.2243 0.8103 0.5414
vn -0.5748 0.8103 -0.1143
vn -0.5861 0.8103 0.0000
vn -0.5414 0.8103 -0.2243
vn -0.5748 0.8103 0.1143
vn -0.5414 0.8103 0.2243
vn 0.5748 0.8103 0.1143
vn 0.5860 0.8103 -0.0000
vn 0.5414 0.8103 0.2243
vn -0.4873 0.8103 0.3256
vn -0.4144 0.8103 0.4144
vn 0.5748 0.8103 -0.1143
vn 0.5414 0.8103 -0.2243
vn 0.1143 0.8103 -0.5748
vn -0.0000 0.8103 -0.5861
vn 0.2243 0.8103 -0.5414
vn -0.3256 0.8103 0.4873
vn -0.2243 0.8103 0.5414
vn 0.4873 0.8103 -0.3256
vn 0.4144 0.8103 -0.4144
vn -0.1143 0.8103 -0.5748
vn -0.2243 0.8103 -0.5414
vn -0.1143 0.8103 0.5748
vn -0.0000 0.8103 0.5860
vn 0.3256 0.8103 -0.4873
vn -0.3256 0.8103 -0.4873
vn -0.4144 0.8103 -0.4144
vn 0.1143 0.8103 0.5748
vn 0.6997 -0.5402 0.4675
vn 0.5951 -0.5402 0.5951
vn -0.8254 -0.5402 -0.1642
vn -0.7775 -0.5402 -0.3221
vn 0.4676 -0.5401 0.6997
vn 0.3221 -0.5401 0.7775
vn -0.6997 -0.5401 -0.4676
vn -0.5951 -0.5401 -0.5951
vn 0.1642 -0.5402 0.8254
vn 0.0000 -0.5402 0.8416
vn -0.4676 -0.5401 -0.6997
vn -0.3221 -0.5401 -0.7775
vn 0.4676 -0.5401 -0.6997
vn 0.5951 -0.5402 -0.5951
vn 0.3221 -0.5401 -0.7775
vn -0.1642 -0.5402 0.8254
vn -0.3221 -0.5402 0.7775
vn -0.1642 -0.5402 -0.8254
vn 0.0000 -0.5401 -0.8416
vn 0.6997 -0.5402 -0.4675
vn 0.1642 -0.5401 -0.8254
vn -0.6997 -0.5401 0.4676
vn -0.5951 -0.5402 0.5951
vn 0.4873 0.8103 0.3256
vn -0.4873 0.8103 -0.3256
vn -0.4675 -0.5402 0.6997
vn -0.8597 0.3662 0.3561
vn -0.9127 0.3662 0.1815
vn 0.5170 0.3662 -0.7737
vn 0.6580 0.3662 -0.6580
vn 0.9305 0.3662 -0.0000
vn -0.7737 0.3662 0.5170
vn 0.3561 0.3662 -0.8597
vn 0.9127 0.3662 -0.1815
vn -0.6580 0.3662 0.6580
vn 0.1815 0.3662 -0.9127
vn 0.8597 0.3662 -0.3561
vn -0.5170 0.3662 0.7737
vn 0.0000 0.3662 -0.9305
vn 0.7737 0.3662 -0.5170
vn -0.3561 0.3662 0.8597
vn -0.1815 0.3662 -0.9127
vn -0.1815 0.3662 0.9127
vn -0.3561 0.3662 -0.8597
vn 0.0000 0.3662 0.9305
vn -0.5170 0.3662 -0.7737
vn 0.1815 0.3662 0.9127
vn -0.6580 0.3662 -0.6580
vn 0.3561 0.3662 0.8597
vn -0.7737 0.3662 -0.5170
vn 0.5170 0.3662 0.7737
vn -0.8597 0.3662 -0.3561
vn 0.6580 0.3662 0.6580
vn -0.9127 0.3662 -0.1815
vn 0.7737 0.3662 0.5170
vn -0.9305 0.3662 0.0000
usemtl None.027
s 1
f 1/1/1 2/2/2 3/3/3 4/4/4
f 5/5/5 6/6/6 7/7/7 8/8/8
f 9/9/9 10/10/10 3/3/3 11/11/11
f 12/12/12 13/13/13 14/14/14 15/15/15
f 16/16/16 17/17/17 14/14/14 18/18/18
f 19/19/19 20/20/20 14/14/14 17/17/17
f 21/21/21 22/22/22 14/14/14 23/23/23
f 24/24/24 25/25/25 14/14/14 20/20/20
f 26/26/26 27/27/27 14/14/14 22/22/22
f 28/28/28 29/29/29 14/14/14 30/30/30
f 31/31/31 32/32/32 14/14/14 25/25/25
f 33/33/33 34/34/34 14/14/14 27/27/27
f 35/35/35 36/36/36 14/14/14 29/29/29
f 37/37/37 38/38/38 14/14/14 32/32/32
f 39/39/39 30/30/30 14/14/14 34/34/34
f 36/36/36 40/40/40 41/41/41 14/14/14
f 38/38/38 42/42/42 15/15/15 14/14/14
f 2/2/2 8/8/8 7/7/7 3/3/3
f 7/7/7 43/43/43 44/44/44 3/3/3
f 45/45/45 46/46/46 3/3/3 10/10/10
f 47/47/47 48/48/48 3/3/3 44/44/44
f 49/49/49 50/50/50 3/3/3 46/46/46
f 51/51/51 52/52/52 3/3/3 48/48/48
f 53/53/53 54/54/54 3/3/3 50/50/50
f 55/55/55 56/56/56 3/3/3 57/57/57
f 58/58/58 59/59/59 3/3/3 52/52/52
f 60/60/60 61/61/61 3/3/3 54/54/54
f 62/62/62 4/4/4 3/3/3 56/56/56
f 63/63/63 57/57/57 3/3/3 61/61/61
f 64/64/64 11/11/11 3/3/3 65/65/65
f 66/66/66 23/23/23 14/14/14 13/13/13
f 67/67/67 18/18/18 14/14/14 41/41/41
f 68/68/68 65/65/65 3/3/3 59/59/59
f 69/69/69 70/70/70 9/9/9 11/11/11
f 71/71/71 72/72/72 56/56/56 55/55/55
f 73/73/73 5/5/5 8/8/8 2/2/2
f 74/74/74 69/69/69 11/11/11 64/64/64
f 75/75/75 71/71/71 55/55/55 57/57/57
f 76/76/76 73/73/73 2/2/2 1/1/1
f 77/77/77 74/74/74 64/64/64 65/65/65
f 78/78/78 75/75/75 57/57/57 63/63/63
f 79/79/79 76/76/76 1/1/1 4/4/4
f 80/80/80 77/77/77 65/65/65 68/68/68
f 81/81/81 78/78/78 63/63/63 61/61/61
f 82/82/82 79/79/79 4/4/4 62/62/62
f 83/83/83 80/80/80 68/68/68 59/59/59
f 84/84/84 81/81/81 61/61/61 60/60/60
f 85/85/72 34/34/34 33/33/33 86/86/82
f 87/87/85 83/83/83 59/59/59 58/58/58
f 88/88/86 84/84/84 60/60/60 54/54/54
f 89/89/87 87/87/85 58/58/58 52/52/52
f 90/90/88 88/88/86 54/54/54 53/53/53
f 91/91/89 89/89/87 52/52/52 51/51/51
f 92/92/90 90/90/88 53/53/53 50/50/50
f 93/93/91 91/91/89 51/51/51 48/48/48
f 94/94/92 92/92/90 50/50/50 49/49/49
f 95/95/93 93/93/91 48/48/48 47/47/47
f 96/96/94 94/94/92 49/49/49 46/46/46
f 97/97/95 95/95/93 47/47/47 44/44/44
f 98/98/96 96/96/94 46/46/46 45/45/45
f 99/99/97 97/97/95 44/44/44 43/43/43
f 100/100/98 98/98/96 45/45/45 10/10/10
f 101/101/6 23/23/23 66/66/66 102/102/97
f 103/103/70 19/19/19 17/17/17 104/104/98
f 70/70/70 103/103/70 104/104/98 100/100/98
f 6/6/6 101/101/6 102/102/97 99/99/97
f 17/17/17 16/16/16 105/105/96 104/104/98
f 66/66/66 13/13/13 106/106/95 102/102/97
f 16/16/16 18/18/18 107/107/94 105/105/96
f 13/13/13 12/12/12 108/108/93 106/106/95
f 18/18/18 67/67/67 109/109/92 107/107/94
f 12/12/12 15/15/15 110/110/91 108/108/93
f 67/67/67 41/41/41 111/111/90 109/109/92
f 15/15/15 42/42/42 112/112/89 110/110/91
f 41/41/41 40/40/40 113/113/88 111/111/90
f 42/42/42 38/38/38 114/114/87 112/112/89
f 40/40/40 36/36/36 115/115/86 113/113/88
f 38/38/38 37/37/37 116/116/85 114/114/87
f 36/36/36 35/35/35 117/117/84 115/115/86
f 37/37/37 32/32/32 118/118/83 116/116/85
f 72/72/72 85/85/72 86/86/82 82/82/82
f 35/35/35 29/29/29 119/119/81 117/117/84
f 32/32/32 31/31/31 120/120/80 118/118/83
f 33/33/33 27/27/27 121/121/79 86/86/82
f 29/29/29 28/28/28 122/122/78 119/119/81
f 31/31/31 25/25/25 123/123/77 120/120/80
f 27/27/27 26/26/26 124/124/76 121/121/79
f 28/28/28 30/30/30 125/125/75 122/122/78
f 25/25/25 24/24/24 126/126/74 123/123/77
f 26/26/26 22/22/22 127/127/73 124/124/76
f 30/30/30 39/39/39 128/128/71 125/125/75
f 24/24/24 20/20/20 129/129/69 126/126/74
f 22/22/22 21/21/21 130/130/5 127/127/73
f 39/39/39 34/34/34 85/85/72 128/128/71
f 20/20/20 19/19/19 103/103/70 129/129/69
f 21/21/21 23/23/23 101/101/6 130/130/5
f 56/56/56 72/72/72 82/82/82 62/62/62
f 7/7/7 6/6/6 99/99/97 43/43/43
f 9/9/9 70/70/70 100/100/98 10/10/10
f 104/104/98 105/105/96 98/98/96 100/100/98
f 102/102/97 106/106/95 97/97/95 99/99/97
f 105/105/96 107/107/94 96/96/94 98/98/96
f 106/106/95 108/108/93 95/95/93 97/97/95
f 107/107/94 109/109/92 94/94/92 96/96/94
f 108/108/93 110/110/91 93/93/91 95/95/93
f 109/109/92 111/111/90 92/92/90 94/94/92
f 110/110/91 112/112/89 91/91/89 93/93/91
f 111/111/90 113/113/88 90/90/88 92/92/90
f 112/112/89 114/114/87 89/89/87 91/91/89
f 113/113/88 115/115/86 88/88/86 90/90/88
f 114/114/87 116/116/85 87/87/85 89/89/87
f 115/115/86 117/117/84 84/84/84 88/88/86
f 116/116/85 118/118/83 83/83/83 87/87/85
f 117/117/84 119/119/81 81/81/81 84/84/84
f 118/118/83 120/120/80 80/80/80 83/83/83
f 86/86/82 121/121/79 79/79/79 82/82/82
f 119/119/81 122/122/78 78/78/78 81/81/81
f 120/120/80 123/123/77 77/77/77 80/80/80
f 121/121/79 124/124/76 76/76/76 79/79/79
f 122/122/78 125/125/75 75/75/75 78/78/78
f 123/123/77 126/126/74 74/74/74 77/77/77
f 124/124/76 127/127/73 73/73/73 76/76/76
f 125/125/75 128/128/71 71/71/71 75/75/75
f 126/126/74 129/129/69 69/69/69 74/74/74
f 127/127/73 130/130/5 5/5/5 73/73/73
f 128/128/71 85/85/72 72/72/72 71/71/71
f 129/129/69 103/103/70 70/70/70 69/69/69
f 130/130/5 101/101/6 6/6/6 5/5/5
