# Blender v2.91.0 OBJ File: '3dbase.blend'
# www.blender.org
mtllib 105x70x.mtl
o 105x70_Circle.044
v -1.143042 0.000000 -1.143361
v -0.972417 0.000000 -1.455224
v -0.002265 0.000000 0.000000
v -1.269828 0.000000 -0.787560
v -0.762353 0.009880 -1.707917
v -0.525823 0.009880 -1.897737
v -0.527308 0.000000 -1.901343
v -0.764509 0.000000 -1.711163
v 1.138511 -0.000000 1.143363
v 0.967885 -0.000000 1.455226
v 1.265298 -0.000000 0.787562
v 0.255638 0.127400 -1.969084
v -0.002266 0.127400 -2.007660
v -0.002265 0.127400 -0.000000
v 0.503631 0.127400 -1.854837
v 0.732184 0.127400 1.669309
v 0.932511 0.127400 1.419630
v 0.503632 0.127400 1.854836
v 1.096915 0.127400 1.115396
v 1.219079 0.127400 0.768298
v -0.736715 0.127400 -1.669307
v -0.937042 0.127400 -1.419628
v -0.508163 0.127400 -1.854835
v 1.294306 0.127400 0.391675
v 1.319708 0.127400 -0.000001
v -1.101446 0.127400 -1.115394
v -1.223609 0.127400 -0.768296
v -1.101445 0.127400 1.115396
v -0.937041 0.127400 1.419630
v -1.223609 0.127400 0.768298
v 1.294306 0.127400 -0.391676
v 1.219078 0.127400 -0.768299
v -1.298837 0.127400 -0.391672
v -1.324238 0.127400 0.000000
v -0.736714 0.127400 1.669309
v -0.508162 0.127400 1.854836
v 1.096915 0.127400 -1.115397
v 0.932510 0.127400 -1.419631
v -1.298836 0.127400 0.391675
v -0.260169 0.127400 1.969083
v -0.002265 0.127400 2.007660
v 0.732183 0.127400 -1.669309
v -0.269930 0.000000 -2.018456
v -0.002266 0.000000 -2.058000
v 0.759977 -0.000000 1.711165
v 0.522776 -0.000000 1.901344
v 0.265398 -0.000000 -2.018456
v 0.522776 -0.000000 -1.901345
v 0.265399 -0.000000 2.018456
v -0.002265 0.000000 2.058000
v 0.759977 -0.000000 -1.711165
v 0.967885 -0.000000 -1.455227
v -0.269929 0.000000 2.018456
v -0.527307 0.000000 1.901344
v -1.347902 0.000000 0.401496
v -1.374265 0.000000 0.000000
v -1.269828 0.000000 0.787563
v 1.138511 -0.000000 -1.143365
v 1.265297 -0.000000 -0.787563
v -0.764507 0.000000 1.711165
v -0.972415 0.000000 1.455226
v -1.347903 0.000000 -0.401493
v -1.143041 0.000000 1.143364
v 1.343372 -0.000000 0.401495
v 1.369735 -0.000000 -0.000001
v -0.260170 0.127400 -1.969083
v 0.255639 0.127400 1.969083
v 1.343372 -0.000000 -0.401497
v 1.261714 0.009880 0.786068
v 1.135286 0.009880 1.141195
v -1.344097 0.009880 0.400734
v -1.370385 0.009880 0.000000
v -0.969673 0.009880 -1.452464
v 1.339568 0.009880 0.400734
v -1.266243 0.009880 0.786069
v -1.139817 0.009880 -1.141192
v 1.365855 0.009880 -0.000001
v -1.139816 0.009880 1.141195
v -1.266244 0.009880 -0.786066
v 1.339567 0.009880 -0.400735
v -0.969672 0.009880 1.452465
v -1.344098 0.009880 -0.400731
v 1.261713 0.009880 -0.786070
v -0.762352 0.009880 1.707919
v -1.327262 0.119697 0.000000
v -1.301803 0.119697 -0.392266
v 1.135285 0.009880 -1.141196
v -0.525822 0.009880 1.897738
v 0.965142 0.009880 -1.452466
v -0.269172 0.009880 2.014627
v 0.757821 0.009880 -1.707919
v -0.002265 0.009880 2.054096
v 0.521291 0.009880 -1.897738
v 0.264642 0.009880 2.014627
v 0.264641 0.009880 -2.014628
v 0.521292 0.009880 1.897738
v -0.002266 0.009880 -2.054096
v 0.757822 0.009880 1.707919
v -0.269173 0.009880 -2.014627
v 0.965142 0.009880 1.452465
v -0.509321 0.119697 -1.857647
v -0.260761 0.119697 -1.972068
v 1.099430 0.119697 1.117087
v 0.934650 0.119697 1.421782
v 0.733864 0.119697 1.671839
v -0.002266 0.119697 -2.010704
v 0.504789 0.119697 1.857648
v 0.256228 0.119697 -1.972069
v 0.256229 0.119697 1.972069
v 0.504789 0.119697 -1.857649
v -0.002265 0.119697 2.010704
v 0.733863 0.119697 -1.671840
v -0.260759 0.119697 1.972069
v 0.934649 0.119697 -1.421783
v -0.509320 0.119697 1.857648
v 1.099430 0.119697 -1.117088
v -0.738394 0.119697 1.671839
v 1.221873 0.119697 -0.769464
v -0.939180 0.119697 1.421782
v 1.297273 0.119697 -0.392270
v -1.226404 0.119697 -0.769460
v -1.103960 0.119697 1.117087
v 1.322733 0.119697 -0.000001
v -1.103961 0.119697 -1.117085
v -1.226403 0.119697 0.769463
v 1.297273 0.119697 0.392268
v -0.939181 0.119697 -1.421780
v -1.301803 0.119697 0.392269
v 1.221873 0.119697 0.769463
v -0.738396 0.119697 -1.671838
vt 0.500000 0.500000
vt 0.500000 0.500000
vt 0.500000 0.500000
vt 0.500000 0.500000
vt 0.500000 0.500000
vt 0.500000 0.500000
vt 0.500000 0.500000
vt 0.500000 0.500000
vt 0.500000 0.500000
vt 0.500000 0.500000
vt 0.500000 0.500000
vt 0.500000 0.500000
vt 0.500000 0.500000
vt 0.500000 0.500000
vt 0.500000 0.500000
vt 0.500000 0.500000
vt 0.500000 0.500000
vt 0.500000 0.500000
vt 0.500000 0.500000
vt 0.500000 0.500000
vt 0.500000 0.500000
vt 0.500000 0.500000
vt 0.500000 0.500000
vt 0.500000 0.500000
vt 0.500000 0.500000
vt 0.500000 0.500000
vt 0.500000 0.500000
vt 0.500000 0.500000
vt 0.500000 0.500000
vt 0.500000 0.500000
vt 0.500000 0.500000
vt 0.500000 0.500000
vt 0.500000 0.500000
vt 0.500000 0.500000
vt 0.500000 0.500000
vt 0.500000 0.500000
vt 0.500000 0.500000
vt 0.500000 0.500000
vt 0.500000 0.500000
vt 0.500000 0.500000
vt 0.500000 0.500000
vt 0.500000 0.500000
vt 0.500000 0.500000
vt 0.500000 0.500000
vt 0.500000 0.500000
vt 0.500000 0.500000
vt 0.500000 0.500000
vt 0.500000 0.500000
vt 0.500000 0.500000
vt 0.500000 0.500000
vt 0.500000 0.500000
vt 0.500000 0.500000
vt 0.500000 0.500000
vt 0.500000 0.500000
vt 0.500000 0.500000
vt 0.500000 0.500000
vt 0.500000 0.500000
vt 0.500000 0.500000
vt 0.500000 0.500000
vt 0.500000 0.500000
vt 0.500000 0.500000
vt 0.500000 0.500000
vt 0.500000 0.500000
vt 0.500000 0.500000
vt 0.500000 0.500000
vt 0.500000 0.500000
vt 0.500000 0.500000
vt 0.500000 0.500000
vt 0.500000 0.500000
vt 0.500000 0.500000
vt 0.500000 0.500000
vt 0.500000 0.500000
vt 0.500000 0.500000
vt 0.500000 0.500000
vt 0.500000 0.500000
vt 0.500000 0.500000
vt 0.500000 0.500000
vt 0.500000 0.500000
vt 0.500000 0.500000
vt 0.500000 0.500000
vt 0.500000 0.500000
vt 0.500000 0.500000
vt 0.500000 0.500000
vt 0.500000 0.500000
vt 0.500000 0.500000
vt 0.500000 0.500000
vt 0.500000 0.500000
vt 0.500000 0.500000
vt 0.500000 0.500000
vt 0.500000 0.500000
vt 0.500000 0.500000
vt 0.500000 0.500000
vt 0.500000 0.500000
vt 0.500000 0.500000
vt 0.500000 0.500000
vt 0.500000 0.500000
vt 0.500000 0.500000
vt 0.500000 0.500000
vt 0.500000 0.500000
vt 0.500000 0.500000
vt 0.500000 0.500000
vt 0.500000 0.500000
vt 0.500000 0.500000
vt 0.500000 0.500000
vt 0.500000 0.500000
vt 0.500000 0.500000
vt 0.500000 0.500000
vt 0.500000 0.500000
vt 0.500000 0.500000
vt 0.500000 0.500000
vt 0.500000 0.500000
vt 0.500000 0.500000
vt 0.500000 0.500000
vt 0.500000 0.500000
vt 0.500000 0.500000
vt 0.500000 0.500000
vt 0.500000 0.500000
vt 0.500000 0.500000
vt 0.500000 0.500000
vt 0.500000 0.500000
vt 0.500000 0.500000
vt 0.500000 0.500000
vt 0.500000 0.500000
vt 0.500000 0.500000
vt 0.500000 0.500000
vt 0.500000 0.500000
vt 0.500000 0.500000
vt 0.500000 0.500000
vt 0.500000 0.500000
vt 0.500000 0.500000
vn -0.7630 -0.5467 -0.3449
vn -0.6944 -0.5445 -0.4705
vn -0.0000 -1.0000 0.0000
vn -0.8057 -0.5478 -0.2255
vn -0.6584 0.3609 -0.6605
vn -0.4892 0.3638 -0.7927
vn -0.4392 -0.5354 -0.7214
vn -0.5902 -0.5406 -0.5996
vn 0.7630 -0.5468 0.3449
vn 0.6944 -0.5445 0.4705
vn 0.8056 -0.5478 0.2255
vn 0.1720 0.8036 -0.5698
vn -0.0000 0.8031 -0.5959
vn 0.0000 1.0000 0.0000
vn 0.3158 0.8051 -0.5022
vn 0.4206 0.8071 0.4143
vn 0.4905 0.8095 0.3227
vn 0.3158 0.8050 0.5022
vn 0.5347 0.8117 0.2349
vn 0.5610 0.8136 0.1528
vn -0.4206 0.8072 -0.4143
vn -0.4905 0.8095 -0.3227
vn -0.3158 0.8051 -0.5021
vn 0.5749 0.8148 0.0752
vn 0.5792 0.8152 0.0000
vn -0.5347 0.8117 -0.2349
vn -0.5610 0.8136 -0.1528
vn -0.5347 0.8117 0.2349
vn -0.4905 0.8095 0.3227
vn -0.5610 0.8136 0.1528
vn 0.5748 0.8148 -0.0752
vn 0.5610 0.8136 -0.1528
vn -0.5749 0.8148 -0.0752
vn -0.5792 0.8152 -0.0000
vn -0.4206 0.8071 0.4143
vn -0.3158 0.8051 0.5022
vn 0.5347 0.8118 -0.2349
vn 0.4905 0.8095 -0.3227
vn -0.5749 0.8148 0.0752
vn -0.1720 0.8036 0.5698
vn 0.0000 0.8031 0.5958
vn 0.4206 0.8071 -0.4143
vn -0.2375 -0.5305 -0.8137
vn 0.0000 -0.5285 -0.8490
vn 0.5901 -0.5406 0.5995
vn 0.4392 -0.5354 0.7214
vn 0.2375 -0.5305 -0.8137
vn 0.4392 -0.5354 -0.7214
vn 0.2375 -0.5305 0.8137
vn -0.0000 -0.5285 0.8490
vn 0.5902 -0.5406 -0.5996
vn 0.6944 -0.5445 -0.4705
vn -0.2375 -0.5305 0.8137
vn -0.4392 -0.5354 0.7214
vn -0.8289 -0.5481 0.1114
vn -0.8363 -0.5482 0.0000
vn -0.8057 -0.5478 0.2255
vn 0.7630 -0.5467 -0.3449
vn 0.8057 -0.5478 -0.2255
vn -0.5901 -0.5406 0.5995
vn -0.6944 -0.5445 0.4705
vn -0.8289 -0.5481 -0.1114
vn -0.7630 -0.5467 0.3449
vn 0.8289 -0.5482 0.1114
vn 0.8363 -0.5482 -0.0000
vn -0.1720 0.8036 -0.5698
vn 0.1720 0.8036 0.5698
vn 0.8289 -0.5481 -0.1114
vn 0.8982 0.3625 0.2487
vn 0.8515 0.3608 0.3805
vn -0.9233 0.3639 0.1227
vn -0.9312 0.3645 0.0000
vn -0.7753 0.3600 -0.5190
vn 0.9233 0.3639 0.1227
vn -0.8982 0.3625 0.2487
vn -0.8515 0.3608 -0.3805
vn 0.9312 0.3645 -0.0000
vn -0.8515 0.3609 0.3805
vn -0.8982 0.3625 -0.2487
vn 0.9233 0.3639 -0.1227
vn -0.7753 0.3600 0.5190
vn -0.9233 0.3639 -0.1227
vn 0.8982 0.3625 -0.2487
vn -0.6584 0.3609 0.6605
vn -0.9234 0.3639 -0.1220
vn 0.8515 0.3609 -0.3805
vn -0.4892 0.3638 0.7927
vn 0.7753 0.3600 -0.5190
vn -0.2640 0.3674 0.8918
vn 0.6584 0.3609 -0.6605
vn -0.0000 0.3690 0.9294
vn 0.4892 0.3638 -0.7927
vn 0.2640 0.3673 0.8918
vn 0.2640 0.3673 -0.8918
vn 0.4892 0.3638 0.7927
vn -0.0000 0.3690 -0.9294
vn 0.6584 0.3609 0.6605
vn -0.2640 0.3674 -0.8918
vn 0.7753 0.3600 0.5190
vn -0.4912 0.3637 -0.7915
vn -0.2653 0.3673 -0.8914
vn 0.8523 0.3607 0.3787
vn 0.7767 0.3598 0.5170
vn 0.6603 0.3607 0.6587
vn 0.4912 0.3637 0.7915
vn 0.2653 0.3673 -0.8914
vn 0.2653 0.3674 0.8914
vn 0.4912 0.3637 -0.7915
vn 0.0000 0.3691 0.9294
vn 0.6603 0.3607 -0.6587
vn -0.2653 0.3674 0.8914
vn 0.7767 0.3598 -0.5170
vn -0.4912 0.3637 0.7915
vn 0.8523 0.3607 -0.3787
vn -0.6603 0.3607 0.6587
vn 0.8986 0.3624 -0.2474
vn -0.7767 0.3598 0.5170
vn 0.9234 0.3639 -0.1220
vn -0.8986 0.3624 -0.2474
vn -0.8523 0.3607 0.3787
vn -0.8523 0.3607 -0.3787
vn -0.8986 0.3624 0.2474
vn 0.9234 0.3639 0.1220
vn -0.7767 0.3598 -0.5170
vn -0.9234 0.3639 0.1220
vn 0.8986 0.3624 0.2474
vn -0.6603 0.3608 -0.6587
usemtl None.040
s 1
f 1/1/1 2/2/2 3/3/3 4/4/4
f 5/5/5 6/6/6 7/7/7 8/8/8
f 9/9/9 10/10/10 3/3/3 11/11/11
f 12/12/12 13/13/13 14/14/14 15/15/15
f 16/16/16 17/17/17 14/14/14 18/18/18
f 19/19/19 20/20/20 14/14/14 17/17/17
f 21/21/21 22/22/22 14/14/14 23/23/23
f 24/24/24 25/25/25 14/14/14 20/20/20
f 26/26/26 27/27/27 14/14/14 22/22/22
f 28/28/28 29/29/29 14/14/14 30/30/30
f 31/31/31 32/32/32 14/14/14 25/25/25
f 33/33/33 34/34/34 14/14/14 27/27/27
f 35/35/35 36/36/36 14/14/14 29/29/29
f 37/37/37 38/38/38 14/14/14 32/32/32
f 39/39/39 30/30/30 14/14/14 34/34/34
f 36/36/36 40/40/40 41/41/41 14/14/14
f 38/38/38 42/42/42 15/15/15 14/14/14
f 2/2/2 8/8/8 7/7/7 3/3/3
f 7/7/7 43/43/43 44/44/44 3/3/3
f 45/45/45 46/46/46 3/3/3 10/10/10
f 47/47/47 48/48/48 3/3/3 44/44/44
f 49/49/49 50/50/50 3/3/3 46/46/46
f 51/51/51 52/52/52 3/3/3 48/48/48
f 53/53/53 54/54/54 3/3/3 50/50/50
f 55/55/55 56/56/56 3/3/3 57/57/57
f 58/58/58 59/59/59 3/3/3 52/52/52
f 60/60/60 61/61/61 3/3/3 54/54/54
f 62/62/62 4/4/4 3/3/3 56/56/56
f 63/63/63 57/57/57 3/3/3 61/61/61
f 64/64/64 11/11/11 3/3/3 65/65/65
f 66/66/66 23/23/23 14/14/14 13/13/13
f 67/67/67 18/18/18 14/14/14 41/41/41
f 68/68/68 65/65/65 3/3/3 59/59/59
f 69/69/69 70/70/70 9/9/9 11/11/11
f 71/71/71 72/72/72 56/56/56 55/55/55
f 73/73/73 5/5/5 8/8/8 2/2/2
f 74/74/74 69/69/69 11/11/11 64/64/64
f 75/75/75 71/71/71 55/55/55 57/57/57
f 76/76/76 73/73/73 2/2/2 1/1/1
f 77/77/77 74/74/74 64/64/64 65/65/65
f 78/78/78 75/75/75 57/57/57 63/63/63
f 79/79/79 76/76/76 1/1/1 4/4/4
f 80/80/80 77/77/77 65/65/65 68/68/68
f 81/81/81 78/78/78 63/63/63 61/61/61
f 82/82/82 79/79/79 4/4/4 62/62/62
f 83/83/83 80/80/80 68/68/68 59/59/59
f 84/84/84 81/81/81 61/61/61 60/60/60
f 85/85/72 34/34/34 33/33/33 86/86/85
f 87/87/86 83/83/83 59/59/59 58/58/58
f 88/88/87 84/84/84 60/60/60 54/54/54
f 89/89/88 87/87/86 58/58/58 52/52/52
f 90/90/89 88/88/87 54/54/54 53/53/53
f 91/91/90 89/89/88 52/52/52 51/51/51
f 92/92/91 90/90/89 53/53/53 50/50/50
f 93/93/92 91/91/90 51/51/51 48/48/48
f 94/94/93 92/92/91 50/50/50 49/49/49
f 95/95/94 93/93/92 48/48/48 47/47/47
f 96/96/95 94/94/93 49/49/49 46/46/46
f 97/97/96 95/95/94 47/47/47 44/44/44
f 98/98/97 96/96/95 46/46/46 45/45/45
f 99/99/98 97/97/96 44/44/44 43/43/43
f 100/100/99 98/98/97 45/45/45 10/10/10
f 101/101/100 23/23/23 66/66/66 102/102/101
f 103/103/102 19/19/19 17/17/17 104/104/103
f 70/70/70 103/103/102 104/104/103 100/100/99
f 6/6/6 101/101/100 102/102/101 99/99/98
f 17/17/17 16/16/16 105/105/104 104/104/103
f 66/66/66 13/13/13 106/106/96 102/102/101
f 16/16/16 18/18/18 107/107/105 105/105/104
f 13/13/13 12/12/12 108/108/106 106/106/96
f 18/18/18 67/67/67 109/109/107 107/107/105
f 12/12/12 15/15/15 110/110/108 108/108/106
f 67/67/67 41/41/41 111/111/109 109/109/107
f 15/15/15 42/42/42 112/112/110 110/110/108
f 41/41/41 40/40/40 113/113/111 111/111/109
f 42/42/42 38/38/38 114/114/112 112/112/110
f 40/40/40 36/36/36 115/115/113 113/113/111
f 38/38/38 37/37/37 116/116/114 114/114/112
f 36/36/36 35/35/35 117/117/115 115/115/113
f 37/37/37 32/32/32 118/118/116 116/116/114
f 72/72/72 85/85/72 86/86/85 82/82/82
f 35/35/35 29/29/29 119/119/117 117/117/115
f 32/32/32 31/31/31 120/120/118 118/118/116
f 33/33/33 27/27/27 121/121/119 86/86/85
f 29/29/29 28/28/28 122/122/120 119/119/117
f 31/31/31 25/25/25 123/123/77 120/120/118
f 27/27/27 26/26/26 124/124/121 121/121/119
f 28/28/28 30/30/30 125/125/122 122/122/120
f 25/25/25 24/24/24 126/126/123 123/123/77
f 26/26/26 22/22/22 127/127/124 124/124/121
f 30/30/30 39/39/39 128/128/125 125/125/122
f 24/24/24 20/20/20 129/129/126 126/126/123
f 22/22/22 21/21/21 130/130/127 127/127/124
f 39/39/39 34/34/34 85/85/72 128/128/125
f 20/20/20 19/19/19 103/103/102 129/129/126
f 21/21/21 23/23/23 101/101/100 130/130/127
f 56/56/56 72/72/72 82/82/82 62/62/62
f 7/7/7 6/6/6 99/99/98 43/43/43
f 9/9/9 70/70/70 100/100/99 10/10/10
f 104/104/103 105/105/104 98/98/97 100/100/99
f 102/102/101 106/106/96 97/97/96 99/99/98
f 105/105/104 107/107/105 96/96/95 98/98/97
f 106/106/96 108/108/106 95/95/94 97/97/96
f 107/107/105 109/109/107 94/94/93 96/96/95
f 108/108/106 110/110/108 93/93/92 95/95/94
f 109/109/107 111/111/109 92/92/91 94/94/93
f 110/110/108 112/112/110 91/91/90 93/93/92
f 111/111/109 113/113/111 90/90/89 92/92/91
f 112/112/110 114/114/112 89/89/88 91/91/90
f 113/113/111 115/115/113 88/88/87 90/90/89
f 114/114/112 116/116/114 87/87/86 89/89/88
f 115/115/113 117/117/115 84/84/84 88/88/87
f 116/116/114 118/118/116 83/83/83 87/87/86
f 117/117/115 119/119/117 81/81/81 84/84/84
f 118/118/116 120/120/118 80/80/80 83/83/83
f 86/86/85 121/121/119 79/79/79 82/82/82
f 119/119/117 122/122/120 78/78/78 81/81/81
f 120/120/118 123/123/77 77/77/77 80/80/80
f 121/121/119 124/124/121 76/76/76 79/79/79
f 122/122/120 125/125/122 75/75/75 78/78/78
f 123/123/77 126/126/123 74/74/74 77/77/77
f 124/124/121 127/127/124 73/73/73 76/76/76
f 125/125/122 128/128/125 71/71/71 75/75/75
f 126/126/123 129/129/126 69/69/69 74/74/74
f 127/127/124 130/130/127 5/5/5 73/73/73
f 128/128/125 85/85/72 72/72/72 71/71/71
f 129/129/126 103/103/102 70/70/70 69/69/69
f 130/130/127 101/101/100 6/6/6 5/5/5
