# Blender v2.91.0 OBJ File: '3dbase.blend'
# www.blender.org
mtllib 40x.mtl
o 40_Circle.017
v 0.152952 0.000000 0.768935
v 0.000001 0.000000 0.784000
v 0.000000 0.000000 0.000000
v 0.300025 0.000000 0.724321
v -0.152183 0.009901 0.765085
v -0.298521 0.009901 0.720695
v -0.300022 0.000000 0.724322
v -0.152950 0.000000 0.768936
v -0.152951 -0.000000 -0.768935
v -0.000000 -0.000000 -0.784000
v -0.300024 -0.000000 -0.724322
v -0.609870 0.127400 0.407503
v -0.518651 0.127400 0.518652
v -0.000000 0.127400 -0.000000
v -0.677651 0.127400 0.280693
v 0.143096 0.127400 -0.719391
v -0.000000 0.127400 -0.733485
v 0.280692 0.127400 -0.677651
v -0.143096 0.127400 -0.719391
v -0.280693 0.127400 -0.677651
v -0.143094 0.127400 0.719391
v 0.000001 0.127400 0.733484
v -0.280692 0.127400 0.677652
v -0.407502 0.127400 -0.609870
v -0.518652 0.127400 -0.518651
v 0.143097 0.127400 0.719390
v 0.280694 0.127400 0.677651
v 0.719391 0.127400 0.143096
v 0.733485 0.127400 -0.000000
v 0.677651 0.127400 0.280692
v -0.609870 0.127400 -0.407502
v -0.677652 0.127400 -0.280692
v 0.407503 0.127400 0.609870
v 0.518652 0.127400 0.518651
v 0.719391 0.127400 -0.143096
v 0.677651 0.127400 -0.280693
v -0.719391 0.127400 -0.143096
v -0.733484 0.127400 0.000001
v 0.609870 0.127400 0.407502
v 0.609870 0.127400 -0.407502
v 0.518651 0.127400 -0.518652
v -0.719391 0.127400 0.143096
v -0.435566 0.000000 0.651873
v -0.554371 0.000000 0.554372
v 0.152951 -0.000000 -0.768935
v 0.300024 -0.000000 -0.724322
v -0.651872 -0.000000 0.435568
v -0.724321 -0.000000 0.300025
v 0.435567 -0.000000 -0.651873
v 0.554372 0.000000 -0.554372
v -0.768936 -0.000000 0.152952
v -0.784000 -0.000000 0.000001
v 0.651872 0.000000 -0.435567
v 0.724322 0.000000 -0.300024
v 0.651873 0.000000 0.435567
v 0.554372 0.000000 0.554372
v 0.724322 0.000000 0.300024
v -0.768935 -0.000000 -0.152951
v -0.724321 -0.000000 -0.300023
v 0.768935 0.000000 -0.152951
v 0.784000 0.000000 -0.000000
v 0.435568 0.000000 0.651872
v 0.768935 0.000000 0.152951
v -0.435567 -0.000000 -0.651872
v -0.554372 -0.000000 -0.554372
v -0.407501 0.127400 0.609870
v 0.407502 0.127400 -0.609870
v -0.651873 -0.000000 -0.435567
v -0.298522 0.009901 -0.720695
v -0.152185 0.009901 -0.765085
v 0.648608 0.009901 0.433386
v 0.551596 0.009901 0.551596
v 0.000001 0.009901 0.780074
v -0.433386 0.009901 -0.648608
v 0.720694 0.009901 0.298521
v 0.152186 0.009901 0.765085
v -0.551596 0.009901 -0.551596
v 0.765085 0.009901 0.152185
v 0.298523 0.009901 0.720694
v -0.648608 0.009901 -0.433386
v 0.780074 0.009901 -0.000000
v 0.433387 0.009901 0.648607
v -0.720695 0.009901 -0.298521
v 0.765085 0.009901 -0.152185
v 0.520811 0.119698 0.520811
v 0.409200 0.119698 0.612408
v -0.765085 0.009901 -0.152185
v 0.720694 0.009901 -0.298521
v -0.780074 0.009901 0.000001
v 0.648608 0.009901 -0.433386
v -0.765085 0.009901 0.152186
v 0.551596 0.009901 -0.551596
v -0.720695 0.009901 0.298522
v 0.433386 0.009901 -0.648608
v -0.648607 0.009901 0.433387
v 0.298522 0.009901 -0.720695
v -0.551595 0.009901 0.551596
v 0.152185 0.009901 -0.765085
v -0.433385 0.009901 0.648609
v -0.000000 0.009901 -0.780074
v -0.281860 0.119698 0.680473
v -0.409198 0.119698 0.612410
v -0.143691 0.119698 -0.722386
v -0.000000 0.119698 -0.736538
v 0.143691 0.119698 -0.722386
v -0.520810 0.119698 0.520812
v 0.281861 0.119698 -0.680473
v -0.612409 0.119698 0.409199
v 0.409199 0.119698 -0.612409
v -0.680472 0.119698 0.281862
v 0.520811 0.119698 -0.520811
v -0.722385 0.119698 0.143692
v 0.612410 0.119698 -0.409199
v -0.736538 0.119698 0.000000
v 0.680473 0.119698 -0.281861
v -0.722386 0.119698 -0.143691
v 0.722386 0.119698 -0.143691
v -0.680472 0.119698 -0.281860
v 0.736538 0.119698 -0.000000
v -0.612410 0.119698 -0.409198
v 0.281862 0.119698 0.680472
v 0.722386 0.119698 0.143691
v -0.520811 0.119698 -0.520811
v 0.143693 0.119698 0.722386
v 0.680473 0.119698 0.281861
v -0.409199 0.119698 -0.612409
v 0.000002 0.119698 0.736538
v 0.612409 0.119698 0.409199
v -0.281861 0.119698 -0.680473
v -0.143691 0.119698 0.722386
vt 0.500018 0.499985
vt 0.500015 0.499983
vt 0.500000 0.499988
vt 0.500019 0.499986
vt 0.499985 0.500017
vt 0.499983 0.500015
vt 0.499982 0.500015
vt 0.499985 0.500017
vt 0.499982 0.499992
vt 0.499985 0.499994
vt 0.499981 0.499991
vt 0.499981 0.500011
vt 0.499981 0.500012
vt 0.500000 0.500012
vt 0.499982 0.500009
vt 0.500014 0.500007
vt 0.500012 0.500006
vt 0.500016 0.500008
vt 0.500009 0.500005
vt 0.500005 0.500004
vt 0.499986 0.500016
vt 0.499988 0.500018
vt 0.499984 0.500015
vt 0.500002 0.500004
vt 0.499998 0.500004
vt 0.499991 0.500018
vt 0.499995 0.500019
vt 0.500012 0.500018
vt 0.500014 0.500016
vt 0.500009 0.500018
vt 0.499995 0.500004
vt 0.499991 0.500005
vt 0.499998 0.500019
vt 0.500002 0.500019
vt 0.500016 0.500015
vt 0.500018 0.500014
vt 0.499988 0.500006
vt 0.499986 0.500007
vt 0.500005 0.500019
vt 0.500019 0.500012
vt 0.500019 0.500011
vt 0.499984 0.500008
vt 0.500006 0.499981
vt 0.500002 0.499980
vt 0.499987 0.499995
vt 0.499991 0.499996
vt 0.499998 0.499980
vt 0.499994 0.499981
vt 0.499994 0.499996
vt 0.499998 0.499997
vt 0.499991 0.499981
vt 0.499987 0.499982
vt 0.500002 0.499997
vt 0.500006 0.499996
vt 0.500019 0.499991
vt 0.500020 0.499989
vt 0.500018 0.499992
vt 0.499985 0.499983
vt 0.499982 0.499985
vt 0.500009 0.499996
vt 0.500013 0.499995
vt 0.500020 0.499988
vt 0.500015 0.499994
vt 0.499980 0.499989
vt 0.499980 0.499988
vt 0.499982 0.500014
vt 0.500018 0.500009
vt 0.499981 0.499986
vt 0.500006 0.500004
vt 0.500009 0.500004
vt 0.500006 0.500019
vt 0.500002 0.500020
vt 0.499987 0.500018
vt 0.500002 0.500003
vt 0.500009 0.500019
vt 0.499991 0.500019
vt 0.499998 0.500003
vt 0.500013 0.500018
vt 0.499994 0.500019
vt 0.499994 0.500004
vt 0.500015 0.500017
vt 0.499998 0.500020
vt 0.499991 0.500004
vt 0.500017 0.500015
vt 0.500002 0.500019
vt 0.499998 0.500019
vt 0.499987 0.500005
vt 0.500019 0.500014
vt 0.499985 0.500006
vt 0.500020 0.500012
vt 0.499983 0.500008
vt 0.500020 0.500011
vt 0.499981 0.500009
vt 0.500019 0.500009
vt 0.499980 0.500011
vt 0.500017 0.500008
vt 0.499980 0.500012
vt 0.500015 0.500006
vt 0.499981 0.500014
vt 0.500013 0.500005
vt 0.499984 0.500015
vt 0.499982 0.500014
vt 0.500009 0.500005
vt 0.500012 0.500006
vt 0.500014 0.500007
vt 0.499981 0.500012
vt 0.500017 0.500008
vt 0.499981 0.500011
vt 0.500018 0.500009
vt 0.499982 0.500009
vt 0.500019 0.500011
vt 0.499984 0.500008
vt 0.500019 0.500012
vt 0.499986 0.500007
vt 0.500018 0.500014
vt 0.499988 0.500006
vt 0.500017 0.500015
vt 0.499991 0.500005
vt 0.500014 0.500017
vt 0.499995 0.500004
vt 0.499995 0.500019
vt 0.500012 0.500018
vt 0.499998 0.500004
vt 0.499991 0.500018
vt 0.500009 0.500018
vt 0.500002 0.500004
vt 0.499988 0.500018
vt 0.500005 0.500019
vt 0.500005 0.500004
vt 0.499986 0.500017
vn 0.1643 -0.5391 0.8261
vn 0.0000 -0.5391 0.8423
vn 0.0000 -1.0000 0.0000
vn 0.3223 -0.5391 0.7781
vn -0.1813 0.3686 0.9117
vn -0.3557 0.3686 0.8588
vn -0.3223 -0.5391 0.7781
vn -0.1643 -0.5391 0.8261
vn -0.1643 -0.5391 -0.8261
vn 0.0000 -0.5391 -0.8422
vn -0.3223 -0.5391 -0.7781
vn -0.4864 0.8110 0.3250
vn -0.4136 0.8111 0.4136
vn -0.0000 1.0000 -0.0000
vn -0.5405 0.8110 0.2239
vn 0.1141 0.8110 -0.5737
vn -0.0000 0.8110 -0.5850
vn 0.2239 0.8111 -0.5404
vn -0.1141 0.8110 -0.5737
vn -0.2239 0.8111 -0.5404
vn -0.1141 0.8111 0.5737
vn -0.0000 0.8111 0.5850
vn -0.2239 0.8111 0.5404
vn -0.3250 0.8110 -0.4864
vn -0.4136 0.8110 -0.4136
vn 0.1141 0.8111 0.5737
vn 0.2239 0.8110 0.5404
vn 0.5737 0.8111 0.1141
vn 0.5850 0.8110 -0.0000
vn 0.5404 0.8111 0.2239
vn -0.4864 0.8110 -0.3250
vn -0.5405 0.8110 -0.2239
vn 0.3250 0.8110 0.4864
vn 0.4136 0.8110 0.4136
vn 0.5737 0.8110 -0.1141
vn 0.5404 0.8111 -0.2239
vn -0.5737 0.8110 -0.1141
vn -0.5850 0.8110 0.0000
vn 0.4864 0.8110 0.3250
vn 0.4864 0.8111 -0.3250
vn 0.4136 0.8110 -0.4136
vn -0.5738 0.8110 0.1141
vn -0.4679 -0.5391 0.7003
vn -0.5956 -0.5391 0.5956
vn 0.1643 -0.5391 -0.8261
vn 0.3223 -0.5391 -0.7781
vn -0.7003 -0.5391 0.4679
vn -0.7781 -0.5391 0.3223
vn 0.4679 -0.5391 -0.7003
vn 0.5956 -0.5391 -0.5956
vn -0.8261 -0.5391 0.1643
vn -0.8423 -0.5391 -0.0000
vn 0.7003 -0.5391 -0.4679
vn 0.7782 -0.5391 -0.3223
vn 0.7003 -0.5391 0.4679
vn 0.5956 -0.5391 0.5956
vn 0.7781 -0.5391 0.3223
vn -0.8261 -0.5391 -0.1643
vn -0.7781 -0.5391 -0.3223
vn 0.8261 -0.5391 -0.1643
vn 0.8422 -0.5391 0.0000
vn 0.4679 -0.5391 0.7003
vn 0.8261 -0.5391 0.1643
vn -0.4679 -0.5391 -0.7003
vn -0.5956 -0.5391 -0.5956
vn -0.3250 0.8111 0.4864
vn 0.3250 0.8110 -0.4864
vn -0.7003 -0.5391 -0.4679
vn -0.3557 0.3686 -0.8588
vn -0.1814 0.3686 -0.9117
vn 0.7729 0.3686 0.5164
vn 0.6573 0.3686 0.6573
vn 0.0000 0.3686 0.9296
vn -0.5165 0.3686 -0.7729
vn 0.8588 0.3686 0.3557
vn 0.1814 0.3686 0.9117
vn -0.6573 0.3686 -0.6573
vn 0.9117 0.3686 0.1814
vn 0.3557 0.3686 0.8588
vn -0.7729 0.3686 -0.5164
vn 0.9296 0.3686 -0.0000
vn 0.5165 0.3686 0.7729
vn -0.8588 0.3686 -0.3557
vn 0.9117 0.3686 -0.1814
vn -0.9117 0.3686 -0.1814
vn 0.8588 0.3686 -0.3557
vn -0.9296 0.3686 0.0000
vn 0.7729 0.3686 -0.5164
vn -0.9117 0.3686 0.1814
vn 0.6573 0.3686 -0.6573
vn -0.8588 0.3686 0.3557
vn 0.5165 0.3686 -0.7729
vn -0.7729 0.3686 0.5165
vn 0.3557 0.3686 -0.8588
vn -0.6573 0.3686 0.6573
vn 0.1814 0.3686 -0.9117
vn -0.5164 0.3686 0.7729
vn -0.0000 0.3686 -0.9296
vn 0.7729 0.3686 -0.5165
vn -0.7729 0.3686 -0.5165
vn 0.7729 0.3686 0.5165
vn -0.1814 0.3686 0.9117
usemtl None.016
s 1
f 1/1/1 2/2/2 3/3/3 4/4/4
f 5/5/5 6/6/6 7/7/7 8/8/8
f 9/9/9 10/10/10 3/3/3 11/11/11
f 12/12/12 13/13/13 14/14/14 15/15/15
f 16/16/16 17/17/17 14/14/14 18/18/18
f 19/19/19 20/20/20 14/14/14 17/17/17
f 21/21/21 22/22/22 14/14/14 23/23/23
f 24/24/24 25/25/25 14/14/14 20/20/20
f 26/26/26 27/27/27 14/14/14 22/22/22
f 28/28/28 29/29/29 14/14/14 30/30/30
f 31/31/31 32/32/32 14/14/14 25/25/25
f 33/33/33 34/34/34 14/14/14 27/27/27
f 35/35/35 36/36/36 14/14/14 29/29/29
f 37/37/37 38/38/38 14/14/14 32/32/32
f 39/39/39 30/30/30 14/14/14 34/34/34
f 36/36/36 40/40/40 41/41/41 14/14/14
f 38/38/38 42/42/42 15/15/15 14/14/14
f 2/2/2 8/8/8 7/7/7 3/3/3
f 7/7/7 43/43/43 44/44/44 3/3/3
f 45/45/45 46/46/46 3/3/3 10/10/10
f 47/47/47 48/48/48 3/3/3 44/44/44
f 49/49/49 50/50/50 3/3/3 46/46/46
f 51/51/51 52/52/52 3/3/3 48/48/48
f 53/53/53 54/54/54 3/3/3 50/50/50
f 55/55/55 56/56/56 3/3/3 57/57/57
f 58/58/58 59/59/59 3/3/3 52/52/52
f 60/60/60 61/61/61 3/3/3 54/54/54
f 62/62/62 4/4/4 3/3/3 56/56/56
f 63/63/63 57/57/57 3/3/3 61/61/61
f 64/64/64 11/11/11 3/3/3 65/65/65
f 66/66/66 23/23/23 14/14/14 13/13/13
f 67/67/67 18/18/18 14/14/14 41/41/41
f 68/68/68 65/65/65 3/3/3 59/59/59
f 69/69/69 70/70/70 9/9/9 11/11/11
f 71/71/71 72/72/72 56/56/56 55/55/55
f 73/73/73 5/5/5 8/8/8 2/2/2
f 74/74/74 69/69/69 11/11/11 64/64/64
f 75/75/75 71/71/71 55/55/55 57/57/57
f 76/76/76 73/73/73 2/2/2 1/1/1
f 77/77/77 74/74/74 64/64/64 65/65/65
f 78/78/78 75/75/75 57/57/57 63/63/63
f 79/79/79 76/76/76 1/1/1 4/4/4
f 80/80/80 77/77/77 65/65/65 68/68/68
f 81/81/81 78/78/78 63/63/63 61/61/61
f 82/82/82 79/79/79 4/4/4 62/62/62
f 83/83/83 80/80/80 68/68/68 59/59/59
f 84/84/84 81/81/81 61/61/61 60/60/60
f 85/85/72 34/34/34 33/33/33 86/86/82
f 87/87/85 83/83/83 59/59/59 58/58/58
f 88/88/86 84/84/84 60/60/60 54/54/54
f 89/89/87 87/87/85 58/58/58 52/52/52
f 90/90/88 88/88/86 54/54/54 53/53/53
f 91/91/89 89/89/87 52/52/52 51/51/51
f 92/92/90 90/90/88 53/53/53 50/50/50
f 93/93/91 91/91/89 51/51/51 48/48/48
f 94/94/92 92/92/90 50/50/50 49/49/49
f 95/95/93 93/93/91 48/48/48 47/47/47
f 96/96/94 94/94/92 49/49/49 46/46/46
f 97/97/95 95/95/93 47/47/47 44/44/44
f 98/98/96 96/96/94 46/46/46 45/45/45
f 99/99/97 97/97/95 44/44/44 43/43/43
f 100/100/98 98/98/96 45/45/45 10/10/10
f 101/101/6 23/23/23 66/66/66 102/102/97
f 103/103/70 19/19/19 17/17/17 104/104/98
f 70/70/70 103/103/70 104/104/98 100/100/98
f 6/6/6 101/101/6 102/102/97 99/99/97
f 17/17/17 16/16/16 105/105/96 104/104/98
f 66/66/66 13/13/13 106/106/95 102/102/97
f 16/16/16 18/18/18 107/107/94 105/105/96
f 13/13/13 12/12/12 108/108/93 106/106/95
f 18/18/18 67/67/67 109/109/92 107/107/94
f 12/12/12 15/15/15 110/110/91 108/108/93
f 67/67/67 41/41/41 111/111/90 109/109/92
f 15/15/15 42/42/42 112/112/89 110/110/91
f 41/41/41 40/40/40 113/113/99 111/111/90
f 42/42/42 38/38/38 114/114/87 112/112/89
f 40/40/40 36/36/36 115/115/86 113/113/99
f 38/38/38 37/37/37 116/116/85 114/114/87
f 36/36/36 35/35/35 117/117/84 115/115/86
f 37/37/37 32/32/32 118/118/83 116/116/85
f 72/72/72 85/85/72 86/86/82 82/82/82
f 35/35/35 29/29/29 119/119/81 117/117/84
f 32/32/32 31/31/31 120/120/100 118/118/83
f 33/33/33 27/27/27 121/121/79 86/86/82
f 29/29/29 28/28/28 122/122/78 119/119/81
f 31/31/31 25/25/25 123/123/77 120/120/100
f 27/27/27 26/26/26 124/124/76 121/121/79
f 28/28/28 30/30/30 125/125/75 122/122/78
f 25/25/25 24/24/24 126/126/74 123/123/77
f 26/26/26 22/22/22 127/127/73 124/124/76
f 30/30/30 39/39/39 128/128/101 125/125/75
f 24/24/24 20/20/20 129/129/69 126/126/74
f 22/22/22 21/21/21 130/130/102 127/127/73
f 39/39/39 34/34/34 85/85/72 128/128/101
f 20/20/20 19/19/19 103/103/70 129/129/69
f 21/21/21 23/23/23 101/101/6 130/130/102
f 56/56/56 72/72/72 82/82/82 62/62/62
f 7/7/7 6/6/6 99/99/97 43/43/43
f 9/9/9 70/70/70 100/100/98 10/10/10
f 104/104/98 105/105/96 98/98/96 100/100/98
f 102/102/97 106/106/95 97/97/95 99/99/97
f 105/105/96 107/107/94 96/96/94 98/98/96
f 106/106/95 108/108/93 95/95/93 97/97/95
f 107/107/94 109/109/92 94/94/92 96/96/94
f 108/108/93 110/110/91 93/93/91 95/95/93
f 109/109/92 111/111/90 92/92/90 94/94/92
f 110/110/91 112/112/89 91/91/89 93/93/91
f 111/111/90 113/113/99 90/90/88 92/92/90
f 112/112/89 114/114/87 89/89/87 91/91/89
f 113/113/99 115/115/86 88/88/86 90/90/88
f 114/114/87 116/116/85 87/87/85 89/89/87
f 115/115/86 117/117/84 84/84/84 88/88/86
f 116/116/85 118/118/83 83/83/83 87/87/85
f 117/117/84 119/119/81 81/81/81 84/84/84
f 118/118/83 120/120/100 80/80/80 83/83/83
f 86/86/82 121/121/79 79/79/79 82/82/82
f 119/119/81 122/122/78 78/78/78 81/81/81
f 120/120/100 123/123/77 77/77/77 80/80/80
f 121/121/79 124/124/76 76/76/76 79/79/79
f 122/122/78 125/125/75 75/75/75 78/78/78
f 123/123/77 126/126/74 74/74/74 77/77/77
f 124/124/76 127/127/73 73/73/73 76/76/76
f 125/125/75 128/128/101 71/71/71 75/75/75
f 126/126/74 129/129/69 69/69/69 74/74/74
f 127/127/73 130/130/102 5/5/5 73/73/73
f 128/128/101 85/85/72 72/72/72 71/71/71
f 129/129/69 103/103/70 70/70/70 69/69/69
f 130/130/102 101/101/6 6/6/6 5/5/5
